<svg width="20" height="20" viewBox="0 0 20 20" fill="none" xmlns="http://www.w3.org/2000/svg">
<path d="M17.5262 1.13033L10.0016 8.65574L2.477 1.13033C2.29602 0.9647 2.05812 0.87529 1.81287 0.880724C1.56761 0.886159 1.33391 0.98602 1.16045 1.1595C0.986981 1.33299 0.887131 1.56671 0.881696 1.812C0.876262 2.05728 0.965663 2.2952 1.13127 2.4762L8.65206 10.0016L1.12937 17.5251C1.03746 17.6127 0.963991 17.7178 0.913278 17.8342C0.862564 17.9506 0.83563 18.076 0.834057 18.2029C0.832485 18.3299 0.856307 18.4559 0.904122 18.5735C0.951938 18.6911 1.02278 18.798 1.11249 18.8878C1.2022 18.9777 1.30896 19.0487 1.4265 19.0967C1.54404 19.1446 1.66999 19.1687 1.79694 19.1673C1.92389 19.1659 2.04927 19.1391 2.16573 19.0886C2.28219 19.038 2.38737 18.9647 2.47509 18.8729L10.0016 11.3494L17.5262 18.8748C17.7072 19.0404 17.9451 19.1298 18.1903 19.1244C18.4356 19.119 18.6693 19.0191 18.8428 18.8456C19.0162 18.6721 19.1161 18.4384 19.1215 18.1931C19.1269 17.9478 19.0375 17.7099 18.8719 17.5289L11.3473 10.0035L18.8719 2.4762C18.9638 2.3886 19.0373 2.28351 19.088 2.16711C19.1387 2.05071 19.1657 1.92535 19.1672 1.79839C19.1688 1.67143 19.145 1.54543 19.0972 1.42781C19.0494 1.31019 18.9785 1.20332 18.8888 1.11347C18.7991 1.02363 18.6923 0.952626 18.5748 0.904639C18.4573 0.856652 18.3313 0.832649 18.2044 0.834042C18.0774 0.835434 17.952 0.862194 17.8356 0.912747C17.7191 0.963301 17.6139 1.03663 17.5262 1.12842V1.13033Z" fill="white"/>
</svg>
