<svg width="20" height="37" viewBox="0 0 20 37" fill="none" xmlns="http://www.w3.org/2000/svg">
<path d="M17.3514 0.439606L0.833817 17.3844C0.54371 17.682 0.381348 18.0812 0.381348 18.4968C0.381348 18.9124 0.54371 19.3116 0.833817 19.6092L17.3514 36.5604C17.4866 36.6992 17.6482 36.8095 17.8266 36.8848C18.0051 36.9601 18.1968 36.9989 18.3906 36.9989C18.5843 36.9989 18.776 36.9601 18.9545 36.8848C19.133 36.8095 19.2946 36.6992 19.4297 36.5604C19.7077 36.2757 19.8634 35.8936 19.8634 35.4957C19.8634 35.0978 19.7077 34.7157 19.4297 34.4311L3.897 18.4968L19.4297 2.56567C19.7068 2.28118 19.8618 1.89975 19.8618 1.50264C19.8618 1.10552 19.7068 0.724097 19.4297 0.439606C19.2946 0.300812 19.133 0.190496 18.9545 0.115171C18.776 0.0398454 18.5843 0.0010376 18.3906 0.0010376C18.1968 0.0010376 18.0051 0.0398454 17.8266 0.115171C17.6482 0.190496 17.4866 0.300812 17.3514 0.439606Z" fill="#00263E" fill-opacity="0.8"/>
</svg>
