<svg width="20" height="37" viewBox="0 0 20 37" fill="none" xmlns="http://www.w3.org/2000/svg">
<path d="M2.64862 36.5604L19.1662 19.6156C19.4564 19.318 19.6187 18.9188 19.6187 18.5032C19.6187 18.0876 19.4564 17.6884 19.1662 17.3908L2.64862 0.439639C2.51348 0.300845 2.35191 0.190527 2.17344 0.115202C1.99497 0.0398773 1.80322 0.00107419 1.6095 0.00107417C1.41578 0.00107415 1.22403 0.0398772 1.04555 0.115202C0.867082 0.190527 0.70551 0.300844 0.570373 0.439638C0.292352 0.724276 0.136705 1.10638 0.136705 1.50427C0.136705 1.90215 0.292352 2.28425 0.570373 2.56889L16.1031 18.5032L0.57037 34.4343C0.293303 34.7188 0.138258 35.1002 0.138258 35.4974C0.138258 35.8945 0.293303 36.2759 0.57037 36.5604C0.705507 36.6992 0.867079 36.8095 1.04555 36.8848C1.22402 36.9602 1.41578 36.999 1.6095 36.999C1.80321 36.999 1.99497 36.9602 2.17344 36.8848C2.35191 36.8095 2.51348 36.6992 2.64862 36.5604Z" fill="#00263E" fill-opacity="0.8"/>
</svg>
