<svg width="6" height="12" viewBox="0 0 6 12" fill="none" xmlns="http://www.w3.org/2000/svg">
<path d="M0.658109 1.04139C0.581789 1.11953 0.539063 1.22442 0.539062 1.33364C0.539062 1.44287 0.581789 1.54776 0.658109 1.62589L4.92198 6.00002L0.658109 10.3733C0.581789 10.4514 0.539062 10.5563 0.539062 10.6655C0.539062 10.7747 0.581789 10.8796 0.658109 10.9578C0.695206 10.9959 0.739559 11.0262 0.788551 11.0468C0.837544 11.0675 0.890182 11.0782 0.943359 11.0782C0.996536 11.0782 1.04917 11.0675 1.09817 11.0468C1.14716 11.0262 1.19151 10.9959 1.22861 10.9578L5.76286 6.30539C5.8425 6.22369 5.88707 6.11411 5.88707 6.00002C5.88707 5.88592 5.8425 5.77634 5.76286 5.69464L1.22861 1.04227C1.19151 1.00417 1.14716 0.973883 1.09817 0.953206C1.04917 0.932528 0.996536 0.921875 0.943359 0.921875C0.890182 0.921875 0.837544 0.932528 0.788551 0.953206C0.739559 0.973883 0.695206 1.00417 0.658109 1.04227V1.04139Z" fill="#F2BA52"/>
</svg>
